<svg xmlns="http://www.w3.org/2000/svg" viewBox="0 0 30 30"><path fill="#FEE402" d="M29.406 13.556L16.435.585c-.767-.767-2.103-.767-2.87 0L.595 13.555C.21 13.94 0 14.449 0 14.99s.21 1.052.594 1.435l12.971 12.971c.384.383.893.594 1.435.594s1.051-.21 1.435-.594l12.97-12.971c.384-.383.595-.893.595-1.435s-.21-1.05-.594-1.434zM24 15.49a.5.5 0 0 1-.5.5H23v1c0 .552-.449 1-1 1h-1c0 .552-.449 1-1 1h-1c-.551 0-1-.448-1-1v-2h-6v2c0 .552-.449 1-1 1h-1c-.551 0-1-.448-1-1H8c-.551 0-1-.448-1-1v-1h-.5a.5.5 0 0 1-.5-.5v-1a.5.5 0 0 1 .5-.5H7v-1c0-.55.449-1 1-1h1c0-.55.449-1 1-1h1c.551 0 1 .45 1 1v2h6v-2c0-.55.449-1 1-1h1c.551 0 1 .45 1 1h1c.551 0 1 .45 1 1v1h.5a.5.5 0 0 1 .5.5v1z"/></svg>