<svg width="45" height="45" viewBox="0 0 45 45" fill="none" xmlns="http://www.w3.org/2000/svg">
<path d="M38.6719 4.92188H6.32812C5.55029 4.92188 4.92188 5.55029 4.92188 6.32812V38.6719C4.92188 39.4497 5.55029 40.0781 6.32812 40.0781H38.6719C39.4497 40.0781 40.0781 39.4497 40.0781 38.6719V6.32812C40.0781 5.55029 39.4497 4.92188 38.6719 4.92188ZM30.564 16.0708L21.3091 28.9028C21.1797 29.0834 21.0092 29.2305 20.8117 29.332C20.6141 29.4335 20.3952 29.4864 20.1731 29.4864C19.951 29.4864 19.7321 29.4335 19.5345 29.332C19.337 29.2305 19.1665 29.0834 19.0371 28.9028L13.5571 21.3091C13.3901 21.0762 13.5571 20.751 13.8428 20.751H15.9038C16.3521 20.751 16.7783 20.9663 17.042 21.3354L20.1709 25.6772L27.0791 16.0972C27.3428 15.7324 27.7646 15.5127 28.2173 15.5127H30.2783C30.564 15.5127 30.731 15.8379 30.564 16.0708Z" fill="#29B52E"/>
</svg>
