<svg width="158" height="49" viewBox="0 0 158 49" fill="none" xmlns="http://www.w3.org/2000/svg">
<path d="M72.9091 21.1562H76.0341C75.6364 18.2798 73.1009 16.2557 69.8125 16.2557C65.9702 16.2557 63.0085 19.0256 63.0085 23.7415C63.0085 28.3438 65.7784 31.1989 69.8764 31.1989C73.5483 31.1989 76.169 28.8764 76.169 25.0483V23.2159H70.0824V25.5312H73.2074C73.1648 27.3352 71.9361 28.4787 69.8906 28.4787C67.5824 28.4787 66.1264 26.7528 66.1264 23.7131C66.1264 20.6875 67.6392 18.9759 69.8622 18.9759C71.446 18.9759 72.5185 19.7926 72.9091 21.1562ZM80.2901 35.0909C82.5415 35.0909 83.7347 33.9403 84.3526 32.179L88.5927 20.1051L85.3896 20.0909L83.1097 28.1023H82.9961L80.7376 20.0909H77.5558L81.4691 31.3125L81.2915 31.7741C80.8938 32.7969 80.1339 32.8466 79.0685 32.5199L78.3867 34.7784C78.82 34.9631 79.5231 35.0909 80.2901 35.0909ZM90.141 31H93.1665V24.4517C93.1665 23.2443 93.9336 22.4418 94.9421 22.4418C95.9364 22.4418 96.604 23.1236 96.604 24.196V31H99.5373V24.3381C99.5373 23.2088 100.184 22.4418 101.284 22.4418C102.25 22.4418 102.975 23.0455 102.975 24.2599V31H105.993V23.6634C105.993 21.2983 104.587 19.9489 102.556 19.9489C100.958 19.9489 99.7148 20.7656 99.2674 22.0156H99.1538C98.8058 20.7514 97.6907 19.9489 96.1921 19.9489C94.7219 19.9489 93.6069 20.7301 93.1523 22.0156H93.0245V20.0909H90.141V31ZM108.284 31H119.42V28.4645H112.14L119.406 18.2798V16.4545H108.27V18.9901H115.542L108.284 29.1747V31ZM126.652 31.2131C129.962 31.2131 132.021 28.9474 132.021 25.5881C132.021 22.2074 129.962 19.9489 126.652 19.9489C123.342 19.9489 121.283 22.2074 121.283 25.5881C121.283 28.9474 123.342 31.2131 126.652 31.2131ZM126.666 28.8693C125.139 28.8693 124.358 27.4702 124.358 25.5668C124.358 23.6634 125.139 22.2571 126.666 22.2571C128.165 22.2571 128.946 23.6634 128.946 25.5668C128.946 27.4702 128.165 28.8693 126.666 28.8693ZM137.014 24.6932C137.021 23.2869 137.859 22.4631 139.081 22.4631C140.295 22.4631 141.027 23.2585 141.02 24.5938V31H144.045V24.054C144.045 21.5114 142.554 19.9489 140.281 19.9489C138.662 19.9489 137.49 20.7443 137 22.0156H136.872V20.0909H133.989V31H137.014V24.6932ZM151.402 31.2131C154.1 31.2131 155.919 29.8991 156.345 27.875L153.547 27.6903C153.241 28.5213 152.46 28.9545 151.451 28.9545C149.939 28.9545 148.98 27.9531 148.98 26.3267V26.3196H156.409V25.4886C156.409 21.7812 154.164 19.9489 151.281 19.9489C148.071 19.9489 145.99 22.2287 145.99 25.5952C145.99 29.054 148.042 31.2131 151.402 31.2131ZM148.98 24.4446C149.044 23.2017 149.988 22.2074 151.331 22.2074C152.645 22.2074 153.554 23.1449 153.561 24.4446H148.98Z" fill="white"/>
<path d="M48.0298 22.1413L26.8438 0.955292C25.5911 -0.297475 23.4089 -0.297475 22.1562 0.955292L0.971833 22.1396C0.343 22.7685 0 23.5998 0 24.4835C0 25.3671 0.343 26.2017 0.9702 26.8273L22.1562 48.0133C22.7834 48.6388 23.6147 48.9835 24.5 48.9835C25.3853 48.9835 26.2166 48.6405 26.8438 48.0133L48.0282 26.8273C48.6554 26.2017 49 25.3687 49 24.4835C49 23.5982 48.657 22.7685 48.0298 22.1413ZM39.2 25.3001C39.2 25.5167 39.114 25.7244 38.9608 25.8776C38.8076 26.0308 38.5999 26.1168 38.3833 26.1168H37.5667V27.7501C37.5667 28.6517 36.8333 29.3835 35.9333 29.3835H34.3C34.3 30.2851 33.5666 31.0168 32.6667 31.0168H31.0333C30.1334 31.0168 29.4 30.2851 29.4 29.3835V26.1168H19.6V29.3835C19.6 30.2851 18.8666 31.0168 17.9667 31.0168H16.3333C15.4334 31.0168 14.7 30.2851 14.7 29.3835H13.0667C12.1667 29.3835 11.4333 28.6517 11.4333 27.7501V26.1168H10.6167C10.4001 26.1168 10.1924 26.0308 10.0392 25.8776C9.88604 25.7244 9.8 25.5167 9.8 25.3001V23.6668C9.8 23.4502 9.88604 23.2425 10.0392 23.0893C10.1924 22.9362 10.4001 22.8501 10.6167 22.8501H11.4333V21.2168C11.4333 20.3185 12.1667 19.5835 13.0667 19.5835H14.7C14.7 18.6851 15.4334 17.9501 16.3333 17.9501H17.9667C18.8666 17.9501 19.6 18.6851 19.6 19.5835V22.8501H29.4V19.5835C29.4 18.6851 30.1334 17.9501 31.0333 17.9501H32.6667C33.5666 17.9501 34.3 18.6851 34.3 19.5835H35.9333C36.8333 19.5835 37.5667 20.3185 37.5667 21.2168V22.8501H38.3833C38.5999 22.8501 38.8076 22.9362 38.9608 23.0893C39.114 23.2425 39.2 23.4502 39.2 23.6668V25.3001Z" fill="#FEE402"/>
</svg>
